<svg style="display:none" xmlns="http://www.w3.org/2000/svg">
  <symbol id="i-home" viewBox="0 0 16 16"><path d="M2 7.5 8 2l6 5.5V14H9.5v-3.5h-3V14H2z" fill="none" stroke="currentColor" stroke-width="1.5" stroke-linejoin="round"/></symbol>
  <symbol id="i-files" viewBox="0 0 16 16"><path d="M1.5 3.5h4l1.5 2h7.5v7h-13z" fill="none" stroke="currentColor" stroke-width="1.5" stroke-linejoin="round"/></symbol>
  <symbol id="i-commit" viewBox="0 0 16 16"><circle cx="8" cy="8" r="2.6" fill="none" stroke="currentColor" stroke-width="1.5"/><path d="M.5 8h4.9M10.6 8h4.9" stroke="currentColor" stroke-width="1.5"/></symbol>
  <symbol id="i-issue" viewBox="0 0 16 16"><circle cx="8" cy="8" r="6" fill="none" stroke="currentColor" stroke-width="1.5"/><circle cx="8" cy="8" r="1.6" fill="currentColor"/></symbol>
  <symbol id="i-comment" viewBox="0 0 16 16"><path d="M2 2.5h12v8H8l-3.5 3v-3H2z" fill="none" stroke="currentColor" stroke-width="1.5" stroke-linejoin="round"/></symbol>
  <symbol id="i-meta" viewBox="0 0 16 16"><circle cx="8" cy="8" r="2.2" fill="none" stroke="currentColor" stroke-width="1.5"/><path d="M8 1.2v2.2M8 12.6v2.2M1.2 8h2.2M12.6 8h2.2M3.5 3.5l1.5 1.5M11 11l1.5 1.5M12.5 3.5 11 5M5 11l-1.5 1.5" stroke="currentColor" stroke-width="1.5"/></symbol>
  <symbol id="i-people" viewBox="0 0 16 16"><circle cx="5.5" cy="5.5" r="2.5" fill="none" stroke="currentColor" stroke-width="1.5"/><path d="M1.5 14a4 4 0 0 1 8 0" fill="none" stroke="currentColor" stroke-width="1.5"/><circle cx="11.5" cy="6.5" r="2" fill="none" stroke="currentColor" stroke-width="1.5"/><path d="M11 14a3.5 3.5 0 0 1 3.8-3.2" fill="none" stroke="currentColor" stroke-width="1.5"/></symbol>
  <symbol id="i-person" viewBox="0 0 16 16"><circle cx="8" cy="5" r="2.6" fill="none" stroke="currentColor" stroke-width="1.5"/><path d="M2.5 14a5.5 5.5 0 0 1 11 0" fill="none" stroke="currentColor" stroke-width="1.5"/></symbol>
  <symbol id="i-search" viewBox="0 0 16 16"><circle cx="7" cy="7" r="4.5" fill="none" stroke="currentColor" stroke-width="1.5"/><path d="M10.5 10.5 14 14" stroke="currentColor" stroke-width="1.5"/></symbol>
  <symbol id="i-menu" viewBox="0 0 16 16"><path d="M2 4h12M2 8h12M2 12h12" stroke="currentColor" stroke-width="1.5"/></symbol>
  <symbol id="i-ed-zed" viewBox="0 0 16 16"><path d="M2.5 3.5h11l-11 9h11" fill="none" stroke="currentColor" stroke-width="1.5" stroke-linejoin="round" stroke-linecap="round"/><path d="M6.5 8h3" stroke="currentColor" stroke-width="1.5" stroke-linecap="round"/></symbol>
  <symbol id="i-ed-code" viewBox="0 0 16 16"><path d="M11.6.9 5.2 6.7 2.4 4.5l-1.3.7L4.3 8l-3.2 2.8 1.3.7 2.8-2.2 6.4 5.8 3.5-1.7v-11zM11.4 4.6v6.8L7.7 8z" fill="currentColor"/></symbol>
  <symbol id="i-ed-nvim" viewBox="0 0 16 16"><path d="M2.8 4.6 5.8 1.4v13.2l-3-3.2zM13.2 11.4l-3 3.2V1.4l3 3.2z" fill="currentColor"/><path d="M5.8 3.8l4.4 8.4" stroke="currentColor" stroke-width="1.6"/></symbol>
</svg>
