<svg style="display:none" xmlns="http://www.w3.org/2000/svg">
  <symbol id="i-home" viewBox="0 0 24 24" fill="none" stroke="currentColor" stroke-linecap="round" stroke-linejoin="round"><path d="M3 12l9-8 9 8"/><path d="M5 10v10h14V10"/></symbol>
  <symbol id="i-files" viewBox="0 0 24 24" fill="none" stroke="currentColor" stroke-linecap="round" stroke-linejoin="round"><path d="M3 5h18v14H3z"/><path d="M8 10l-2 2 2 2"/><path d="M14 10l2 2-2 2"/></symbol>
  <symbol id="i-commit" viewBox="0 0 24 24" fill="none" stroke="currentColor" stroke-linecap="round" stroke-linejoin="round"><circle cx="12" cy="12" r="3"/><path d="M12 3v6M12 15v6"/></symbol>
  <symbol id="i-review" viewBox="0 0 24 24" fill="none" stroke="currentColor" stroke-linecap="round" stroke-linejoin="round"><path d="M9 5H7a2 2 0 0 0-2 2v12a2 2 0 0 0 2 2h10a2 2 0 0 0 2-2V7a2 2 0 0 0-2-2h-2"/><path d="M9 5a2 2 0 0 1 2-2h2a2 2 0 0 1 2 2v0a1 1 0 0 1-1 1h-4a1 1 0 0 1-1-1z"/><path d="M9 14l2 2 4-4"/></symbol>
  <symbol id="i-issue" viewBox="0 0 24 24" fill="none" stroke="currentColor" stroke-linecap="round" stroke-linejoin="round"><circle cx="12" cy="12" r="9"/><path d="M12 8v4M12 16h.01"/></symbol>
  <symbol id="i-comment" viewBox="0 0 24 24" fill="none" stroke="currentColor" stroke-linecap="round" stroke-linejoin="round"><path d="M21 12a8 8 0 0 1-11.5 7.2L4 20l1-4.4A8 8 0 1 1 21 12z"/></symbol>
  <symbol id="i-meta" viewBox="0 0 24 24" fill="none" stroke="currentColor" stroke-linecap="round" stroke-linejoin="round"><circle cx="12" cy="12" r="3"/><path d="M12 2v3M12 19v3M4.2 4.2l2.1 2.1M17.7 17.7l2.1 2.1M2 12h3M19 12h3M4.2 19.8l2.1-2.1M17.7 6.3l2.1-2.1"/></symbol>
  <symbol id="i-people" viewBox="0 0 24 24" fill="none" stroke="currentColor" stroke-linecap="round" stroke-linejoin="round"><circle cx="9" cy="8" r="3.2"/><path d="M3.5 20a5.5 5.5 0 0 1 11 0"/><circle cx="17" cy="9" r="2.6"/><path d="M16 14.4a4.4 4.4 0 0 1 4.5 4"/></symbol>
  <symbol id="i-person" viewBox="0 0 24 24" fill="none" stroke="currentColor" stroke-linecap="round" stroke-linejoin="round"><circle cx="12" cy="8" r="4"/><path d="M4 21v-1a7 7 0 0 1 16 0v1"/></symbol>
  <symbol id="i-search" viewBox="0 0 24 24" fill="none" stroke="currentColor" stroke-linecap="round" stroke-linejoin="round"><circle cx="11" cy="11" r="7"/><path d="M20 20l-3.5-3.5"/></symbol>
  <symbol id="i-branch" viewBox="0 0 24 24" fill="none" stroke="currentColor" stroke-linecap="round" stroke-linejoin="round"><circle cx="6" cy="6" r="2.5"/><circle cx="6" cy="18" r="2.5"/><circle cx="18" cy="8" r="2.5"/><path d="M6 8.5v7M18 10.5c0 4-6 1.5-6 5"/></symbol>
  <symbol id="i-menu" viewBox="0 0 24 24" fill="none" stroke="currentColor" stroke-linecap="round" stroke-linejoin="round"><path d="M3 6h18M3 12h18M3 18h18"/></symbol>
  <symbol id="i-file" viewBox="0 0 24 24" fill="none" stroke="currentColor" stroke-linecap="round" stroke-linejoin="round"><path d="M6 3h9l3 3v15H6z"/><path d="M14 3v4h4"/></symbol>
  <symbol id="i-folder" viewBox="0 0 24 24" fill="none" stroke="currentColor" stroke-linecap="round" stroke-linejoin="round"><path d="M3 7h5l2 2h11v9H3z"/></symbol>
  <symbol id="i-warn" viewBox="0 0 24 24" fill="none" stroke="currentColor" stroke-linecap="round" stroke-linejoin="round"><path d="M12 3l9 16H3z"/><path d="M12 10v4M12 17h.01"/></symbol>
  <symbol id="i-editor" viewBox="0 0 24 24" fill="none" stroke="currentColor" stroke-linecap="round" stroke-linejoin="round"><path d="M7 17L17 7M9 7h8v8"/></symbol>
  <symbol id="i-agent" viewBox="0 0 24 24" fill="none" stroke="currentColor" stroke-linecap="round" stroke-linejoin="round"><rect x="4" y="8" width="16" height="12" rx="2"/><path d="M12 8V4"/><circle cx="12" cy="3" r="1"/><circle cx="9" cy="14" r="1.1"/><circle cx="15" cy="14" r="1.1"/></symbol>
</svg>
